<?xml version="1.0" standalone="no"?>
<!DOCTYPE svg PUBLIC "-//W3C//DTD SVG 20010904//EN"
 "http://www.w3.org/TR/2001/REC-SVG-20010904/DTD/svg10.dtd">
<svg version="1.0" xmlns="http://www.w3.org/2000/svg"
 width="600.000000pt" height="600.000000pt" viewBox="0 0 600.000000 600.000000"
 preserveAspectRatio="xMidYMid meet">

<g transform="translate(0.000000,600.000000) scale(0.100000,-0.100000)"
fill="#000000" stroke="none">
<path d="M2735 5989 c-1174 -102 -2193 -902 -2574 -2022 -285 -836 -184 -1771
271 -2517 740 -1214 2205 -1745 3547 -1285 859 294 1549 980 1851 1840 485
1385 -99 2912 -1387 3624 -509 282 -1119 411 -1708 360z m129 -261 c3 -13 7
-58 8 -100 l3 -77 -55 -6 c-160 -17 -235 -28 -330 -46 -58 -12 -108 -23 -112
-25 -3 -2 4 -45 18 -95 13 -50 24 -94 24 -98 0 -5 -30 -16 -67 -26 -333 -89
-704 -302 -961 -549 l-73 -70 -73 73 -73 72 -53 -58 c-73 -80 -164 -195 -218
-275 -26 -40 -49 -65 -56 -61 -47 28 -156 105 -156 111 0 4 29 47 65 97 455
635 1148 1047 1915 1140 165 20 189 19 194 -7z m541 -4 c738 -108 1399 -514
1840 -1129 36 -50 65 -93 65 -97 0 -6 -109 -83 -156 -111 -7 -4 -30 21 -56 61
-54 80 -145 195 -218 275 l-53 58 -73 -72 -73 -72 -86 82 c-255 240 -611 444
-932 532 -46 12 -83 27 -83 33 0 6 11 50 24 98 14 48 22 90 18 92 -4 2 -54 13
-112 25 -95 18 -170 29 -330 46 l-55 6 3 77 c5 132 0 126 95 118 45 -4 127
-14 182 -22z m-169 -887 c4 -4 -17 -213 -47 -465 -31 -251 -55 -458 -54 -460
2 -2 40 -12 85 -23 91 -21 221 -79 297 -130 26 -18 83 -66 125 -107 l77 -75
371 278 371 278 17 -23 c59 -80 120 -180 173 -282 l60 -118 -38 -15 c-21 -9
-213 -91 -428 -183 -288 -124 -389 -172 -386 -183 51 -172 54 -195 54 -334 0
-139 -1 -143 -48 -310 -5 -18 37 -38 415 -199 231 -99 420 -183 420 -188 0
-32 -129 -269 -202 -370 l-34 -48 -369 275 -369 275 -80 -78 c-45 -43 -103
-93 -129 -111 -75 -51 -207 -109 -293 -129 -43 -10 -80 -24 -82 -31 -2 -6 20
-210 49 -452 42 -354 50 -442 39 -449 -43 -27 -456 -21 -467 6 -3 8 18 208 47
445 28 237 50 438 48 446 -2 11 -28 22 -81 34 -156 37 -316 129 -430 248 -41
42 -74 68 -80 64 -7 -4 -173 -128 -369 -275 l-357 -268 -40 53 c-70 93 -201
329 -201 363 0 7 188 92 418 189 229 98 418 179 420 181 2 1 -6 33 -18 70 -50
165 -49 379 4 536 l23 70 -71 33 c-39 17 -229 99 -423 181 -194 82 -353 154
-353 160 -1 31 156 314 219 393 l19 25 371 -278 371 -278 80 76 c127 122 264
198 421 236 45 10 82 20 84 22 1 2 -22 197 -51 433 -29 237 -53 444 -53 462
-1 30 1 32 42 36 68 7 425 2 433 -6z m-2591 -626 c47 -22 85 -42 85 -44 0 -2
-22 -51 -49 -108 -54 -115 -139 -354 -130 -364 4 -3 48 -18 98 -32 84 -24 92
-28 86 -47 -101 -347 -107 -812 -14 -1175 11 -41 17 -76 15 -78 -2 -2 -43 -14
-91 -28 -48 -13 -90 -27 -93 -30 -10 -10 73 -245 128 -362 27 -58 50 -108 50
-110 0 -5 -167 -83 -179 -83 -10 0 -80 149 -127 272 -119 313 -174 622 -174
978 0 356 55 665 174 978 47 123 117 272 127 272 5 0 47 -18 94 -39z m4854
-51 c171 -368 251 -739 251 -1160 0 -354 -55 -667 -174 -978 -45 -117 -117
-272 -126 -272 -9 0 -180 80 -180 84 0 2 22 50 49 107 54 115 139 354 130 364
-4 3 -48 18 -98 32 -84 24 -92 28 -86 47 16 55 55 251 66 336 18 137 15 460
-5 595 -15 97 -44 239 -62 301 -5 19 3 23 87 47 50 14 94 29 98 32 9 10 -76
249 -130 364 -27 57 -47 107 -44 110 9 8 159 79 171 80 6 1 30 -39 53 -89z
m-4597 -2607 c54 -81 145 -196 218 -276 l53 -58 73 72 73 73 73 -70 c144 -139
323 -268 512 -368 112 -60 344 -154 449 -181 37 -10 67 -21 67 -26 0 -4 -11
-48 -24 -98 -14 -50 -21 -93 -18 -95 4 -2 54 -13 112 -25 96 -19 167 -29 333
-46 46 -5 57 -10 53 -22 -3 -8 -6 -47 -6 -86 0 -104 3 -102 -134 -88 -804 81
-1510 490 -1981 1146 -36 50 -65 93 -65 97 0 6 158 118 166 118 1 0 21 -30 46
-67z m4336 5 c40 -27 72 -54 70 -59 -8 -25 -142 -203 -223 -297 -470 -547
-1138 -887 -1862 -948 -95 -8 -90 -14 -95 118 l-3 77 55 6 c160 17 235 28 330
46 58 12 108 23 112 25 4 2 -4 44 -18 92 -13 48 -24 92 -24 98 0 6 37 21 83
33 323 89 684 296 940 540 l78 75 73 -73 73 -73 69 77 c71 79 244 304 244 318
0 10 4 7 98 -55z"/>
</g>
</svg>
